<svg xmlns="http://www.w3.org/2000/svg" viewBox="0 0 256 256" width="32" height="32" aria-hidden="true" role="img">
  <defs>
    <linearGradient id="bg" x1="0" y1="0" x2="1" y2="1">
      <stop offset="0" stop-color="#14b8a6"/>
      <stop offset="1" stop-color="#2563eb"/>
    </linearGradient>
    <linearGradient id="brush" x1="0" y1="0" x2="1" y2="1">
      <stop offset="0" stop-color="#fde68a"/>
      <stop offset="1" stop-color="#f59e0b"/>
    </linearGradient>
  </defs>
  <!-- Canvas board -->
  <rect x="20" y="28" width="216" height="168" rx="18" fill="url(#bg)"/>
  <rect x="28" y="36" width="200" height="152" rx="12" fill="#ffffff" opacity="0.92"/>
  <!-- Paint stroke -->
  <path d="M56 140c36-8 64-20 88-40 10-8 20-18 36-18 10 0 18 6 18 14 0 10-12 18-24 22-32 10-64 22-96 30-10 2-18-2-22-8z" fill="#93c5fd" opacity="0.8"/>
  <!-- Brush -->
  <g transform="translate(140,150) rotate(-25)">
    <rect x="-8" y="-40" width="16" height="46" rx="6" fill="url(#brush)"/>
    <path d="M-10 6c0 10 10 18 10 18s10-8 10-18c0-6-4-10-10-10s-10 4-10 10z" fill="#374151"/>
  </g>
</svg>